<svg width="414" height="255" viewBox="0 0 414 255" fill="none" xmlns="http://www.w3.org/2000/svg">
<path d="M96.2238 194.308C96.2238 230.27 84.9943 242.684 52.562 242.684C20.1306 242.684 8.89453 230.27 8.89453 194.308V16.0765H24.4856V176.481C24.4856 191.44 32.5968 197.485 52.5559 197.485C72.515 197.485 80.6262 191.44 80.6262 176.481V16.0765H96.2238V194.308ZM153.392 238.867H109.731V193.675H153.392C176.47 193.675 181.463 187.629 181.463 172.67V16.0765H197.06V190.484C197.06 226.136 189.261 238.867 153.392 238.867ZM253.601 238.867H209.94V193.675H253.601C276.679 193.675 281.672 187.629 281.672 172.67V16.0765H297.269V190.484C297.263 226.136 289.464 238.867 253.601 238.867ZM354.163 242.684C318.294 242.684 310.501 229.954 310.501 194.308V60.6359C310.501 24.9901 318.3 12.2595 354.163 12.2595C390.032 12.2595 397.824 24.9896 397.824 60.6359V194.308C397.824 229.954 390.032 242.684 354.163 242.684ZM354.163 57.4523C331.085 57.4523 326.092 63.4974 326.092 78.456V176.481C326.092 191.44 331.085 197.485 354.163 197.485C377.24 197.485 382.233 191.44 382.233 176.481V78.4626C382.233 63.504 377.24 57.4519 354.163 57.4519V57.4523Z" fill="black"/>
<path d="M366.198 97.794H307.934C307.757 97.7937 307.582 97.7511 307.423 97.6697C307.265 97.5883 307.128 97.4703 307.023 97.3253L292.622 77.4235C285.168 67.1305 278.613 60.1061 273.13 56.5514C270.305 54.715 266.524 53.3286 261.901 52.4242C257.381 51.5443 251.892 51.0957 245.6 51.0957H236.278C235.488 51.0957 234.936 51.8963 235.219 52.6519L235.456 53.2898L240.579 67.0917L240.695 67.3978C240.776 67.616 240.921 67.8039 241.111 67.9364C241.3 68.0689 241.525 68.1398 241.755 68.1395H252.964C261.895 68.1395 268.758 69.0965 273.348 70.985C277.868 72.8401 282.812 77.2997 288.057 84.2331L296.872 95.9384C297.443 96.694 296.911 97.7873 295.973 97.7873H40.006C39.7047 97.7878 39.4159 97.9094 39.2028 98.1254C38.9898 98.3414 38.8699 98.6343 38.8694 98.9398V111.427C38.87 111.732 38.99 112.025 39.203 112.241C39.416 112.457 39.7048 112.578 40.006 112.579H102.089C102.378 112.579 102.654 112.69 102.86 112.885C107.2 117.019 109.395 121.231 109.395 125.411C109.395 130.449 107.257 134.069 102.866 136.491C98.2179 139.056 89.7689 140.41 77.7501 140.521L76.98 140.528C76.1259 140.534 75.5863 141.458 75.991 142.22L76.357 142.91L82.8417 155.169L82.9761 155.43C83.0754 155.617 83.224 155.773 83.4053 155.88C83.5866 155.986 83.7936 156.04 84.0033 156.035L84.2924 156.028C91.8426 155.826 98.2948 154.752 103.495 152.832C103.682 152.763 103.882 152.746 104.077 152.782C104.272 152.817 104.455 152.904 104.606 153.034C107.386 155.384 109.53 157.962 110.987 160.716C112.644 163.828 113.479 167.284 113.479 170.97C113.479 175.683 111.752 179.342 108.208 182.154C104.542 185.064 100.427 186.484 95.6174 186.484C90.7319 186.484 85.8011 184.446 80.9732 180.435C75.9849 176.295 70.5853 169.57 64.9419 160.449L52.7694 140.872L52.5317 140.488C52.376 140.238 52.1307 140.057 51.847 139.986C51.5633 139.914 51.2633 139.957 51.0098 140.104L50.625 140.332L47.2604 142.285L46.8369 142.513C46.7046 142.59 46.5889 142.694 46.4968 142.817C46.4047 142.94 46.3381 143.081 46.3009 143.231C46.2637 143.382 46.2568 143.538 46.2805 143.691C46.3042 143.843 46.3581 143.99 46.4389 144.121L46.6954 144.538L59.1061 164.68C68.6012 180.058 76.0749 189.609 81.9556 193.886C87.8621 198.182 94.1601 200.364 100.67 200.364C108.098 200.364 114.358 198.079 119.276 193.567C124.252 189.016 126.775 183.163 126.775 176.165C126.775 170.664 125.292 165.416 122.377 160.579C120.027 156.686 116.695 152.975 112.451 149.525C112.319 149.418 112.212 149.282 112.138 149.128C112.064 148.973 112.025 148.804 112.024 148.633C112.022 148.461 112.059 148.291 112.131 148.136C112.203 147.98 112.308 147.843 112.439 147.734C114.551 145.97 116.252 143.926 117.523 141.634C119.36 138.314 120.291 134.414 120.291 130.039C120.291 124.037 118.467 118.822 114.846 114.473C114.223 113.724 114.743 112.579 115.706 112.579H266.17C266.32 112.578 266.468 112.608 266.606 112.666C266.744 112.724 266.869 112.809 266.975 112.916C267.08 113.023 267.164 113.15 267.221 113.29C267.278 113.43 267.307 113.58 267.307 113.731V127.513C267.306 127.819 267.186 128.112 266.973 128.328C266.76 128.543 266.472 128.665 266.17 128.666H220.375C219.361 128.666 218.86 129.916 219.579 130.632L220.388 131.446C230.314 141.348 236.214 148.008 237.915 151.237C239.572 154.362 240.412 157.044 240.412 159.206C240.412 162.018 239.578 164.199 237.864 165.866C236.124 167.558 233.922 168.378 231.123 168.378C227.238 168.378 222.603 165.853 217.364 160.859C213.217 156.914 208.813 150.26 204.273 141.087L204.261 141.061L199.073 129.61L198.951 129.336C198.861 129.136 198.717 128.967 198.535 128.848C198.353 128.729 198.141 128.666 197.924 128.666H154.973C153.958 128.666 153.457 129.916 154.176 130.632L154.992 131.446C164.918 141.348 170.818 148.008 172.519 151.237C174.175 154.362 175.016 157.044 175.016 159.206C175.016 162.018 174.182 164.199 172.468 165.866C170.727 167.558 168.525 168.378 165.726 168.378C161.842 168.378 157.207 165.853 151.968 160.859C146.575 155.729 140.784 146.068 134.762 132.155L134.55 131.66C134.484 131.511 134.388 131.377 134.268 131.268C134.148 131.159 134.007 131.078 133.853 131.028C133.7 130.979 133.537 130.963 133.378 130.983C133.218 131.002 133.063 131.055 132.925 131.139L132.47 131.413L129.266 133.366L128.939 133.568C128.713 133.704 128.542 133.916 128.454 134.167C128.366 134.417 128.367 134.691 128.457 134.941L128.585 135.306C133.811 150.15 139.924 161.966 146.755 170.423C150.228 174.733 153.817 178.02 157.412 180.201C161.097 182.434 164.892 183.567 168.692 183.567C174.817 183.567 179.954 181.51 183.96 177.447C187.959 173.392 189.995 168.235 189.995 162.129C189.995 158.789 189.025 155.26 187.119 151.64C186.027 149.564 184.608 147.422 182.875 145.241C182.278 144.492 182.804 143.372 183.755 143.372H196.254C196.71 143.372 197.128 143.652 197.301 144.082C201.718 154.85 206.706 163.704 212.138 170.429C215.611 174.739 219.2 178.027 222.796 180.208C226.481 182.441 230.282 183.574 234.082 183.574C240.207 183.574 245.343 181.516 249.35 177.454C253.356 173.398 255.384 168.242 255.384 162.135C255.384 158.795 254.415 155.267 252.515 151.647C251.423 149.57 249.998 147.428 248.271 145.241C247.674 144.492 248.2 143.372 249.151 143.372H266.17C266.32 143.372 266.468 143.402 266.606 143.459C266.744 143.517 266.869 143.602 266.975 143.709C267.08 143.816 267.164 143.943 267.221 144.083C267.278 144.223 267.307 144.373 267.307 144.525V193.345C267.307 193.632 267.416 193.912 267.609 194.126L267.731 194.263L277.02 204.491L277.162 204.647C277.38 204.881 277.682 205.018 277.997 205.018H282.035C282.336 205.018 282.625 204.896 282.838 204.68C283.051 204.464 283.171 204.172 283.171 203.866V113.744C283.172 113.439 283.292 113.146 283.505 112.93C283.718 112.714 284.006 112.593 284.307 112.592H299.267C299.568 112.593 299.857 112.714 300.07 112.93C300.283 113.146 300.402 113.439 300.403 113.744V192.278C300.403 192.551 300.5 192.818 300.679 193.026L300.795 193.163L310.406 204.445L310.547 204.608C310.759 204.862 311.073 205.005 311.401 205.005H315.028C315.33 205.005 315.618 204.883 315.831 204.667C316.044 204.451 316.164 204.158 316.165 203.853V113.731C316.165 113.426 316.285 113.133 316.498 112.917C316.711 112.701 317 112.579 317.301 112.579H366.679C366.98 112.578 367.269 112.457 367.482 112.241C367.695 112.025 367.815 111.732 367.815 111.427V98.9398C367.815 98.6344 367.695 98.3415 367.482 98.1254C367.269 97.9094 366.98 97.7878 366.679 97.7873L366.198 97.794Z" fill="#FFFCF7" stroke="black" stroke-width="2.6806" stroke-miterlimit="10"/>
</svg>
